<?xml version="1.0" standalone="no"?>
<svg version="1.0" xmlns="http://www.w3.org/2000/svg"
 width="357.000000pt" height="257.000000pt" viewBox="0 0 357.000000 257.000000"
 preserveAspectRatio="xMidYMid meet">

<g transform="translate(0.000000,257.000000) scale(0.100000,-0.100000)"
fill="#000000" stroke="none">
<path d="M593 2421 c-37 -23 -74 -90 -100 -182 -23 -82 -26 -432 -4 -549 40
-219 111 -381 212 -481 l66 -65 7 -73 c18 -182 105 -354 236 -465 30 -25 98
-69 151 -96 60 -31 148 -90 230 -155 171 -135 256 -179 347 -179 106 -1 194
48 409 225 59 49 136 100 196 131 119 61 209 141 278 246 58 88 84 156 113
287 21 101 21 101 82 160 152 150 248 422 261 746 12 286 -46 459 -154 459
-69 0 -199 -82 -458 -289 -66 -53 -139 -112 -163 -130 l-43 -34 -92 22 c-236
55 -540 53 -794 -6 l-71 -16 -169 140 c-357 298 -459 355 -540 304z m1788
-1287 c21 -26 -3 -138 -39 -183 -87 -108 -236 -116 -339 -18 -18 17 -33 38
-33 47 0 31 135 140 172 140 5 0 8 -15 9 -32 0 -42 20 -100 36 -105 13 -5 24
38 26 106 1 25 8 46 17 51 26 17 136 12 151 -6z m-1093 0 c19 -6 22 -13 22
-60 0 -29 5 -65 11 -81 10 -27 11 -27 25 -9 7 11 17 41 20 68 4 27 10 50 14
53 12 7 83 -35 123 -73 64 -61 65 -68 16 -113 -149 -138 -379 -45 -379 152 0
37 5 59 13 62 17 8 108 8 135 1z"/>
</g>
</svg>
