<svg xmlns="http://www.w3.org/2000/svg" width="48" height="48" viewBox="0 0 48 48">
  <defs>
    <style>
      .cls-1 {
        fill: #fa017c;
        fill-rule: evenodd;
      }
    </style>
  </defs>
  <path id="smiley-4" class="cls-1" d="M727,2002a3,3,0,1,0,3,3A3,3,0,0,0,727,2002Zm-14,0a3,3,0,1,0,3,3A3,3,0,0,0,713,2002Zm7,12c-4.664,0-8.289,3.27-10.185,5.59l0.941,1.16a17.675,17.675,0,0,1,18.488,0l0.941-1.16C728.291,2017.27,724.666,2014,720,2014Zm0-28a24,24,0,1,0,24,24A24,24,0,0,0,720,1986Zm0,4a20,20,0,1,1-20,20A20.021,20.021,0,0,1,720,1990Z" transform="translate(-696 -1986)"/>
</svg>
