<svg xmlns="http://www.w3.org/2000/svg" width="48" height="48" viewBox="0 0 48 48">
  <defs>
    <style>
      .cls-1 {
        fill: #ff007e;
        fill-rule: evenodd;
      }
    </style>
  </defs>
  <path id="smiley-13" class="cls-1" d="M718,1439c-0.352.25-1.51,1.02-1.51,1.02a3.989,3.989,0,0,0-3.492-1.9,4.124,4.124,0,0,0-3.49,1.9s-1.16-.77-1.508-1.02c0.562-1.49,2.41-4,5-4S717.434,1437.51,718,1439Zm14,0c-0.352.25-1.51,1.02-1.51,1.02a3.989,3.989,0,0,0-3.492-1.9,4.124,4.124,0,0,0-3.49,1.9s-1.16-.77-1.508-1.02c0.562-1.49,2.41-4,5-4S731.434,1437.51,732,1439Zm-0.984,7.88a17.649,17.649,0,0,1-22.032,0l-0.984.99c2.254,3.44,6.4,7.13,12,7.13s9.744-3.69,12-7.13ZM720,1419a24,24,0,1,0,24,24A24,24,0,0,0,720,1419Zm0,4a20,20,0,1,1-20,20A20.022,20.022,0,0,1,720,1423Z" transform="translate(-696 -1419)"/>
</svg>
