<svg xmlns="http://www.w3.org/2000/svg" width="24" height="19.5" viewBox="0 0 24 19.5">
  <defs>
    <style>
      .cls-1 {
        fill: #666;
        fill-rule: evenodd;
      }
    </style>
  </defs>
  <path id="twitter-1" class="cls-1" d="M239,7258.56a9.921,9.921,0,0,1-2.828.77,4.931,4.931,0,0,0,2.165-2.72,9.926,9.926,0,0,1-3.127,1.19,4.929,4.929,0,0,0-8.391,4.49,13.95,13.95,0,0,1-10.148-5.14,4.925,4.925,0,0,0,1.523,6.57,4.812,4.812,0,0,1-2.229-.61,4.932,4.932,0,0,0,3.949,4.89,5.023,5.023,0,0,1-2.224.08,4.924,4.924,0,0,0,4.6,3.42,9.9,9.9,0,0,1-7.29,2.04,14.006,14.006,0,0,0,21.543-12.44A10.021,10.021,0,0,0,239,7258.56Z" transform="translate(-215 -7256.25)"/>
</svg>
