<svg xmlns="http://www.w3.org/2000/svg" width="24" height="24" viewBox="0 0 24 24">
  <defs>
    <style>
      .cls-1 {
        fill: #666;
        fill-rule: evenodd;
      }
    </style>
  </defs>
  <path id="instagram-11" class="cls-1" d="M138.406,7258.15a1.44,1.44,0,1,0,1.44,1.44A1.443,1.443,0,0,0,138.406,7258.15ZM132,7270a4,4,0,1,1,4-4A4,4,0,0,1,132,7270Zm0-10.16a6.16,6.16,0,1,0,6.162,6.16A6.162,6.162,0,0,0,132,7259.84Zm0-5.84c-3.259,0-3.667.01-4.947,0.07-4.359.2-6.781,2.62-6.981,6.98-0.058,1.28-.072,1.69-0.072,4.95s0.014,3.67.072,4.95c0.2,4.35,2.618,6.78,6.981,6.98,1.28,0.06,1.688.07,4.947,0.07s3.668-.01,4.948-0.07c4.354-.2,6.782-2.62,6.98-6.98,0.058-1.28.072-1.69,0.072-4.95s-0.014-3.67-.072-4.95c-0.2-4.35-2.618-6.78-6.98-6.98C135.668,7254.01,135.259,7254,132,7254Zm0,2.16c3.2,0,3.584.01,4.849,0.07,3.253,0.15,4.771,1.69,4.92,4.92,0.057,1.27.069,1.64,0.069,4.85s-0.012,3.58-.069,4.85c-0.149,3.22-1.665,4.77-4.92,4.92-1.265.05-1.644,0.07-4.849,0.07s-3.584-.02-4.849-0.07c-3.26-.15-4.771-1.7-4.919-4.92-0.057-1.27-.07-1.65-0.07-4.85s0.013-3.58.07-4.85c0.149-3.23,1.664-4.77,4.919-4.92C128.417,7256.17,128.8,7256.16,132,7256.16Z" transform="translate(-120 -7254)"/>
</svg>
