<svg xmlns="http://www.w3.org/2000/svg" width="36" height="36" viewBox="0 0 36 36">
  <defs>
    <style>
      .cls-1 {
        fill: #db9681 ;
        fill-rule: evenodd;
      }
    </style>
  </defs>
  <path id="time-3" class="cls-1" d="M206.771,3820.69a0.28,0.28,0,0,1,0,.55c-2.861.55-9.068,1.67-9.821,1.67a1.949,1.949,0,0,1-1.952-1.95c0-.77,1.155-8.17,1.688-11.17a0.261,0.261,0,0,1,.515.02l1.478,9.36ZM198,3802a18,18,0,1,0,18,18A18,18,0,0,0,198,3802Zm0,3a15,15,0,1,1-15,15A15.018,15.018,0,0,1,198,3805Z" transform="translate(-180 -3802)"/>
</svg>
